# xmcd
#
# Track frame offsets:
#	150
#	16700
#	24950
#	48587
#	65212
#	76425
#	95975
#	114250
#	134300
#	154950
#	169875
#	188300
#
# Disc length: 2750 seconds
#
# Revision: 0
# Processed by: cddbd v1.5.1PL0 Copyright (c) Steve Scherf et al.
# Submitted via: audiograbber 1.83.01
#
DISCID=970abc0c
DTITLE=John Mayall and the Bluesbreakers - Crusade
DYEAR=1900
DGENRE=
TTITLE0=oh, pretty woman
TTITLE1=stand back baby
TTITLE2=my time after while
TTITLE3=snowy wood
TTITLE4=man of stone
TTITLE5=tears in my eyes
TTITLE6=driving sideways
TTITLE7=the death of J.B. Lenoir
TTITLE8=I can't quit you baby
TTITLE9=streamline
TTITLE10=me and my woman
TTITLE11=checkin' up on my baby
EXTD=
EXTT0=
EXTT1=
EXTT2=
EXTT3=
EXTT4=
EXTT5=
EXTT6=
EXTT7=
EXTT8=
EXTT9=
EXTT10=
EXTT11=
PLAYORDER=
